<svg xmlns="http://www.w3.org/2000/svg" viewBox="0 0 100 100">
  <!-- Favicon with swirl -->
  <rect width="100" height="100" fill="#E67E3A" rx="20"/>
  <circle cx="50" cy="50" r="35" fill="#F5EED5"/>
  <path d="M 50 50 C 50 50, 62 38, 70 46 C 74 50, 72 58, 66 64 C 60 70, 50 70, 44 64 C 38 58, 36 50, 42 44 C 46 40, 52 41, 54 45" 
        fill="none"
        stroke="#E8B4BC" 
        stroke-width="4"
        stroke-linecap="round"/>
  <path d="M 54 45 C 56 42, 60 40, 64 43 C 66 45, 67 49, 65 53 C 63 57, 58 59, 54 58 C 51 57, 50 54, 51 51" 
        fill="none"
        stroke="#E8B4BC"
        stroke-width="3.5"
        stroke-linecap="round"/>
</svg>
