<svg width="1080" height="1080" viewBox="0 0 1080 1080" fill="none" xmlns="http://www.w3.org/2000/svg">
<rect width="1080" height="1080" fill="#FBBC17"/>
<path d="M497.315 891.449C528.228 888.697 562.495 879.703 588.241 867.584C593.022 865.334 597.555 863.493 598.315 863.493C599.075 863.493 599.976 863.041 600.318 862.488C600.66 861.935 606.086 858.912 612.377 855.769C618.668 852.627 623.815 849.479 623.815 848.774C623.815 848.069 624.691 847.493 625.763 847.493C627.592 847.493 641.195 839.407 650.946 832.522C653.349 830.826 657.79 827.689 660.815 825.55C663.84 823.412 667.805 820.274 669.627 818.578C671.448 816.881 673.323 815.493 673.793 815.493C674.264 815.493 674.798 815.155 674.982 814.743C675.165 814.33 677.34 812.361 679.815 810.366C684.343 806.717 702.674 788.397 706.994 783.204C709.235 780.51 709.78 780.381 722.815 779.464C751.008 777.481 766.421 774.912 783.815 769.297C791.757 766.733 816.1 755.059 817.816 752.991C818.5 752.167 819.454 751.493 819.935 751.493C823.763 751.493 852.018 726.866 861.301 715.438C869.702 705.097 879.427 689.819 883.99 679.792C888.941 668.913 894.843 649.773 896.388 639.58C898.191 627.689 898.222 609.937 896.455 601.492C893.871 589.142 888 577.533 877.554 564.118C872.067 557.072 857.157 543.493 854.907 543.493C854.306 543.493 853.812 543.156 853.809 542.743C853.806 542.331 852.455 541.226 850.809 540.29C848.713 539.097 847.815 537.822 847.815 536.04C847.815 534.639 848.166 533.493 848.596 533.493C850.05 533.493 863.815 519.653 863.815 518.191C863.815 517.392 864.49 516.178 865.315 515.493C866.14 514.808 866.815 513.666 866.815 512.954C866.815 512.242 867.177 511.51 867.619 511.326C868.951 510.774 873.679 498.553 876.066 489.493C879.05 478.163 879.223 453.292 876.403 440.993C874.352 432.051 868.063 413.883 864.739 407.3C849.433 376.988 820.125 354.176 778.315 340.034C773.915 338.546 769.415 336.943 768.315 336.473C767.215 336.002 764.74 335.417 762.815 335.171C760.89 334.926 754.59 333.747 748.815 332.552C735.01 329.693 714.405 328.989 696.815 330.775C689.39 331.529 683.044 332.013 682.712 331.851C682.38 331.689 681.793 325.466 681.407 318.021C681.021 310.577 680.107 302.35 679.377 299.739C678.646 297.129 677.268 291.634 676.314 287.529C675.359 283.424 673.893 278.474 673.054 276.529C669.792 268.962 663.507 255.968 662.879 255.493C662.516 255.218 661.003 252.887 659.516 250.314C658.03 247.74 656.236 245.04 655.531 244.314C654.826 243.587 653.146 241.418 651.797 239.493C645.251 230.151 632.172 217.86 620.142 209.746C607.535 201.243 589.176 193.038 579.315 191.5C576.565 191.07 572.515 190.254 570.315 189.686C565.536 188.451 560.224 187.789 544.532 186.47C524.388 184.776 495.099 187.756 471.519 193.898C449.7 199.581 423.221 210.534 408.045 220.153C405.147 221.99 402.611 223.493 402.409 223.493C401.57 223.493 388.967 232.155 384.676 235.681C382.125 237.778 379.575 239.493 379.009 239.493C378.444 239.493 377.832 239.831 377.648 240.243C377.465 240.656 375.065 242.97 372.315 245.387C357.183 258.684 343.754 273.161 334.646 285.993C326.697 297.193 323.675 301.71 322.737 303.797C322.194 305.005 320.002 309.143 317.867 312.993C314.096 319.792 313.714 320.136 304.552 324.993C299.364 327.743 293.942 330.781 292.502 331.743C291.063 332.706 289.419 333.493 288.85 333.493C288.281 333.493 287.815 333.943 287.815 334.493C287.815 335.043 287.34 335.493 286.76 335.493C286.18 335.493 283.055 337.293 279.815 339.493C276.575 341.693 273.487 343.493 272.953 343.493C272.419 343.493 271.832 343.857 271.648 344.301C271.465 344.746 269.065 346.629 266.315 348.485C263.565 350.342 261.09 352.162 260.815 352.529C260.54 352.897 257.615 355.372 254.315 358.03C241.526 368.331 226.09 385.197 216.825 398.993C213.871 403.393 210.634 408.212 209.634 409.703C208.633 411.193 207.815 413.105 207.815 413.953C207.815 414.8 207.423 415.493 206.943 415.493C206.094 415.493 197.747 433.507 196.286 438.493C195.884 439.868 194.764 442.793 193.797 444.993C192.831 447.193 191.048 453.493 189.836 458.993C188.623 464.493 187.036 471.693 186.309 474.993C181.233 498.026 180.54 531.177 184.772 548.493C187.069 557.894 189.726 566.454 190.825 567.993C191.218 568.543 191.832 570.218 192.189 571.715C192.546 573.212 194.365 577.712 196.229 581.715C198.094 585.718 199.894 589.668 200.229 590.493C200.565 591.318 202.406 594.918 204.321 598.493C206.235 602.068 207.805 605.518 207.809 606.16C207.813 606.801 208.21 607.476 208.692 607.66C209.174 607.843 211.259 611.368 213.326 615.493C219.62 628.059 229.645 640.615 239.08 647.749C240.713 648.983 243.459 651.132 245.182 652.525C246.905 653.918 250.002 655.933 252.065 657.003C254.127 658.072 255.815 659.296 255.815 659.72C255.815 660.145 256.246 660.493 256.772 660.493C257.924 660.493 283.578 676.045 286.065 678.251C288.504 680.414 288.245 683.548 284.721 694.493C277.397 717.242 276.841 720.085 276.827 734.821C276.801 763.789 285.003 792.809 300.615 818.993C302.583 822.293 304.49 825.218 304.854 825.493C305.218 825.768 306.068 827.041 306.743 828.322C307.418 829.603 308.723 831.564 309.642 832.679C314.131 838.12 319.682 844.176 323.074 847.333C326.94 850.931 327.389 851.262 337.41 857.91C340.658 860.065 343.465 862.202 343.648 862.66C343.832 863.118 344.625 863.493 345.412 863.493C346.733 863.493 350.65 865.328 351.815 866.493C352.82 867.498 363.499 872.415 370.315 875.011C374.165 876.477 378.215 878.053 379.315 878.512C392.117 883.862 418.274 889.452 439.815 891.443C446.14 892.027 453.115 892.682 455.315 892.897C460.806 893.435 483.981 892.636 497.315 891.449ZM506.315 689.879C484.678 686.69 461.565 680.635 448.315 674.684C424.926 664.179 404.036 643.122 389.592 615.489C371.042 580 371.842 542.326 391.981 502.993C395.866 495.405 402.463 484.78 406.478 479.644C420.498 461.71 432.869 449.371 448.551 437.682C483.816 411.397 520.958 400.188 567.315 401.839C587.243 402.549 595.195 403.605 610.815 407.612C631.195 412.841 646.355 419.77 660.282 430.222C674.876 441.175 687.988 458.844 693.173 474.544C699.871 494.827 699.274 521.152 691.678 540.379C682.679 563.159 661.325 584.344 636.815 594.808C627.591 598.746 624.8 599.712 616.146 601.961C600.679 605.981 592.211 606.803 572.461 606.198C547.835 605.445 536.801 602.489 515.879 591.04C494.856 579.535 485.827 571.297 481.527 559.696C469.557 527.401 481.513 497.989 516.455 473.775C525.068 467.806 537.055 461.969 545.815 459.479C556.351 456.483 576.806 455.646 586.333 457.821C605.272 462.144 621.716 472.723 627.91 484.568C629.785 488.155 630.231 490.602 630.263 497.493C630.297 504.858 629.922 506.771 627.451 511.818C621.639 523.688 614.153 528.451 601.315 528.446C592.675 528.443 586.439 526.781 574.607 521.328C567.815 518.197 567.815 518.197 567.815 513.495C567.815 508.806 569.987 504.712 575.523 498.967C578.919 495.443 581.055 491.561 580.456 490.001C580.048 488.936 578.412 488.493 574.887 488.493C561.93 488.493 533.015 509.875 525.25 525.199C522.722 530.189 522.318 532.103 522.334 538.993C522.375 555.803 531.914 567.596 549.746 572.883C556.512 574.888 572.422 574.995 579.315 573.081C593.27 569.205 616.627 556.28 627.489 546.423C632.499 541.876 634.841 538.558 639.13 529.936C645.198 517.734 646.275 512.682 646.263 496.493C646.252 482.589 646.119 481.643 643.024 473.493C639.227 463.496 632.483 454.109 625.177 448.651C618.953 444.001 605.327 437.284 597.815 435.162C557.208 423.694 501.583 441.774 463.637 478.776C445.322 496.634 434.35 513.098 427.789 532.568C421.537 551.122 421.209 571.968 426.926 587.493C429.435 594.307 439.046 613.497 442.072 617.735C446.419 623.822 447.375 624.966 453.815 631.801C471.363 650.424 497.284 660.578 523.215 658.987C531.892 658.455 534.301 658.673 540.315 660.534C544.165 661.725 550.127 663.376 553.565 664.202C560.719 665.92 560.623 665.668 558.199 676.405C556.362 684.539 555.755 685.062 544.815 687.944C538.46 689.619 513.169 690.89 506.315 689.879Z" fill="#FFF6D9"/>
<path d="M506.314 689.879C484.678 686.69 461.565 680.634 448.314 674.683C424.925 664.179 404.036 643.122 389.592 615.489C371.041 580 371.841 542.326 391.981 502.993C395.866 495.405 402.463 484.78 406.478 479.643C420.497 461.71 432.869 449.371 448.551 437.682C483.816 411.397 520.958 400.188 567.314 401.839C587.243 402.549 595.195 403.604 610.814 407.612C631.195 412.841 646.355 419.77 660.281 430.222C674.875 441.175 687.987 458.844 693.172 474.544C699.871 494.827 699.273 521.152 691.678 540.379C682.678 563.159 661.324 584.344 636.814 594.808C627.59 598.746 624.8 599.712 616.146 601.961C600.678 605.981 592.211 606.802 572.46 606.198C547.835 605.445 536.801 602.489 515.879 591.04C494.856 579.535 485.827 571.297 481.527 559.695C469.556 527.401 481.513 497.988 516.454 473.775C525.068 467.806 537.055 461.969 545.814 459.479C556.351 456.483 576.806 455.646 586.332 457.821C605.272 462.144 621.716 472.723 627.909 484.568C629.785 488.155 630.23 490.602 630.262 497.493C630.297 504.858 629.921 506.771 627.45 511.817C621.639 523.688 614.153 528.45 601.314 528.446C592.675 528.443 586.438 526.781 574.606 521.327C567.814 518.197 567.814 518.197 567.814 513.495C567.814 508.806 569.987 504.712 575.522 498.967C578.919 495.442 581.055 491.561 580.456 490C580.047 488.936 578.412 488.493 574.887 488.493C561.929 488.493 533.015 509.875 525.25 525.199C522.722 530.189 522.317 532.103 522.334 538.993C522.375 555.803 531.914 567.596 549.746 572.882C556.511 574.888 572.422 574.995 579.314 573.08C593.27 569.205 616.626 556.28 627.488 546.423C632.498 541.876 634.841 538.558 639.129 529.935C645.197 517.734 646.275 512.681 646.263 496.493C646.252 482.589 646.119 481.643 643.023 473.493C639.227 463.496 632.483 454.108 625.177 448.65C618.952 444 605.326 437.284 597.814 435.162C557.207 423.694 501.583 441.774 463.636 478.775C445.321 496.634 434.349 513.098 427.789 532.567C421.537 551.121 421.209 571.968 426.926 587.493C429.435 594.307 439.046 613.497 442.072 617.734C446.419 623.821 447.374 624.966 453.814 631.801C471.363 650.423 497.283 660.577 523.215 658.987C531.891 658.455 534.301 658.673 540.314 660.534C544.164 661.725 550.127 663.375 553.564 664.201C560.719 665.92 560.623 665.668 558.198 676.405C556.361 684.539 555.755 685.062 544.814 687.944C538.46 689.618 513.169 690.889 506.314 689.879Z" fill="#EDB0B8"/>
</svg>
