<svg width="536" height="72" viewBox="0 0 536 72" fill="none" xmlns="http://www.w3.org/2000/svg">
<path d="M29.4262 71.1292C26.6516 71.4061 22.3521 71.0354 19.7663 70.2962C17.2033 69.5635 13.1533 67.6696 10.7663 66.0875C7.62101 64.0028 5.5123 61.4215 3.10648 56.7109C-0.0385766 50.5529 -0.196427 49.7373 0.106477 41.2109C0.368326 33.8401 0.918876 31.2152 3.14776 26.7109C4.64462 23.6859 8.15045 18.8467 10.9385 15.9571C13.7266 13.0675 18.1269 9.64161 20.7169 8.34401C23.307 7.04641 27.9012 5.38612 30.9262 4.65447C33.9512 3.92283 39.8907 3.29871 44.1251 3.26755C49.1867 3.2303 52.2698 3.6573 53.1251 4.51402C54.0276 5.41794 54.3608 8.43659 54.2128 14.3674C54.0955 19.0701 53.4779 23.5462 52.8404 24.3143C52.1088 25.1958 49.6797 25.7109 46.2541 25.7109C43.2691 25.7109 39.5779 26.3568 38.0514 27.1461C36.5249 27.9355 33.6222 30.4118 31.6011 32.649C29.4147 35.0691 27.9262 37.7381 27.9262 39.2385C27.9262 41.0214 28.6732 42.0444 30.4755 42.7296C32.1211 43.3553 34.5137 43.3552 37.2255 42.7293C39.5359 42.1961 43.4512 41.7557 45.9262 41.7506C48.4012 41.7456 50.9606 42.0813 51.6136 42.4966C52.2667 42.9118 53.2792 44.5092 53.8636 46.0463C54.4481 47.5834 54.9262 51.0218 54.9262 53.6871C54.9262 57.9241 54.5178 58.8784 51.6762 61.2807C49.8887 62.7919 45.2762 65.5137 41.4262 67.3292C37.5762 69.1446 32.1762 70.8546 29.4262 71.1292ZM104.386 68.7109C95.4317 68.7109 94.9392 68.5993 94.459 66.4609C94.1811 65.2234 93.835 62.1859 93.6899 59.7109C93.4474 55.5721 93.1957 55.1845 90.5544 54.8827C88.9749 54.7022 87.1749 55.0568 86.5544 55.6706C85.9339 56.2844 84.9675 59.1321 84.407 61.9988C83.3877 67.2109 83.3877 67.2109 74.14 67.4986C66.3461 67.7412 64.7942 67.5304 64.2675 66.1579C63.9238 65.2622 64.3559 61.5327 65.2277 57.8701C66.0995 54.2075 67.0804 48.2859 67.4075 44.7109C67.7346 41.1359 68.6868 34.1609 69.5236 29.2109C70.3603 24.2609 71.5807 16.8407 72.2356 12.7215C73.4262 5.23215 73.4262 5.23215 78.4262 4.57769C81.1762 4.21774 88.5035 3.66015 94.7092 3.33859C105.992 2.75395 105.992 2.75395 107.017 5.45096C107.581 6.93432 108.693 13.1121 109.487 19.1794C110.281 25.2467 111.838 38.4525 112.947 48.5257C114.057 58.5988 114.704 67.2613 114.386 67.7757C114.068 68.29 109.568 68.7109 104.386 68.7109ZM90.2116 30.5258C92.123 30.254 92.4262 29.5948 92.4262 25.7109C92.4262 21.827 92.123 21.1678 90.2116 20.896C88.5407 20.6584 87.8388 21.2108 87.3531 23.146C86.9991 24.5567 86.9991 26.8651 87.3531 28.2758C87.8388 30.2109 88.5407 30.7634 90.2116 30.5258ZM209.485 68.6249C207.803 68.5776 205.218 68.1743 203.741 67.7286C202.264 67.283 197.411 66.7065 192.957 66.4476C188.503 66.1886 184.615 65.7335 184.318 65.4361C184.021 65.1387 183.542 50.9574 183.255 33.9222C182.865 10.8317 183.03 2.7646 183.904 2.22452C184.549 1.82607 192.417 1.25761 201.388 0.961262C217.185 0.439476 217.72 0.487122 218.35 2.46957C218.707 3.59548 219.03 7.0635 219.067 10.1763C219.104 13.2891 218.826 16.1453 218.449 16.5234C218.073 16.9015 214.763 17.4359 211.095 17.7109C204.782 18.1842 204.426 18.3441 204.426 20.7109C204.426 23.0439 204.854 23.2581 210.833 23.9174C214.356 24.306 217.643 25.0279 218.137 25.5217C218.631 26.0154 218.898 29.0725 218.73 32.3151C218.426 38.2109 218.426 38.2109 211.75 39.2109C208.078 39.7609 204.774 40.5145 204.409 40.8855C204.043 41.2566 204.02 42.4303 204.357 43.4937C204.695 44.5572 206.648 46.128 208.699 46.9843C210.749 47.8407 213.15 48.7659 214.035 49.0404C215.004 49.3411 215.903 51.1635 216.297 53.6252C216.656 55.8723 216.666 59.6234 216.319 61.9609C215.972 64.2984 214.981 66.7734 214.116 67.4609C213.252 68.1484 211.167 68.6722 209.485 68.6249ZM262.777 68.1398C259.284 68.4177 254.946 68.1924 253.136 67.6391C251.327 67.0858 248.565 65.8538 246.999 64.9013C245.433 63.9489 242.564 61.27 240.625 58.9483C238.685 56.6266 236.326 52.7063 235.383 50.2365C234.013 46.6488 233.763 43.581 234.14 34.9784C234.506 26.6198 235.107 23.1737 236.826 19.5748C238.043 17.0249 240.555 13.1683 242.407 11.0046C244.259 8.84088 248.621 5.5317 252.1 3.65086C258.094 0.410796 258.951 0.230632 268.426 0.221024C277.756 0.211524 278.789 0.416654 283.841 3.28207C288.429 5.88484 289.764 7.35209 292.592 12.9022C295.12 17.8617 296.083 21.2679 296.562 26.9362C296.962 31.6568 296.731 36.4136 295.94 39.816C295.249 42.7832 293.525 47.3794 292.109 50.0297C290.692 52.6801 288.025 56.1728 286.182 57.7913C284.338 59.4099 279.747 62.2867 275.979 64.1843C271.092 66.6456 267.307 67.7794 262.777 68.1398ZM262.201 42.7109C263.26 42.7109 265.656 41.1809 267.526 39.3109C270.051 36.7864 270.926 35.0411 270.926 32.5334C270.926 30.6758 270.226 28.1558 269.37 26.9334C268.464 25.6409 266.763 24.7109 265.304 24.7109C263.924 24.7109 261.929 25.1742 260.871 25.7405C259.813 26.3068 258.267 28.0845 257.437 29.6909C256.606 31.2973 255.926 33.8424 255.926 35.3468C255.926 36.8511 256.905 39.1235 258.101 40.3964C259.296 41.6694 261.141 42.7109 262.201 42.7109ZM137.437 67.7109C126.128 67.7109 126.128 67.7109 125.744 62.9609C125.533 60.3484 125.668 53.0359 126.043 46.7109C126.418 40.3859 127.252 28.4609 127.896 20.2109C128.722 9.62692 129.481 4.88889 130.474 4.11716C131.293 3.48051 139.159 2.77335 149.297 2.42501C158.875 2.09587 167.998 2.16955 169.569 2.58873C172.277 3.31107 172.468 3.73352 173.231 10.676C173.681 14.7737 173.65 18.3873 173.159 18.8777C172.677 19.3598 170.29 20.1452 167.854 20.623C165.116 21.1603 164.38 21.5394 165.926 21.6166C167.301 21.6853 169.013 22.1139 169.731 22.569C170.625 23.1361 170.94 25.2547 170.731 29.3036C170.426 35.2109 170.426 35.2109 160.176 35.4959C149.926 35.7808 149.926 35.7808 149.748 41.4959C149.65 44.6391 149.64 48.1109 149.725 49.2109C149.811 50.3109 149.625 54.9234 149.314 59.4609C148.747 67.7109 148.747 67.7109 137.437 67.7109ZM332.495 66.6404C330.257 66.6016 326.827 65.9807 324.872 65.2604C322.916 64.5401 319.33 62.9373 316.902 61.6986C314.474 60.4599 311.192 58.4935 309.609 57.3287C308.026 56.1639 305.587 53.2647 304.19 50.8861C302.387 47.8187 301.514 44.6204 301.185 39.8861C300.807 34.4314 301.181 31.9998 303.232 26.5875C304.612 22.9446 306.844 18.2171 308.192 16.0819C309.54 13.9467 312.543 10.4833 314.865 8.38535C317.187 6.28742 321.188 3.64716 323.757 2.5181C326.461 1.3293 331.372 0.295455 335.426 0.0618217C339.276 -0.160071 345.126 0.234514 348.426 0.938676C354.426 2.21897 354.426 2.21897 354.19 10.7078C354.06 15.3767 353.737 19.7624 353.471 20.4538C353.131 21.3411 350.197 21.7109 343.497 21.7109C334.985 21.7109 333.791 21.9398 331.941 23.9253C330.806 25.1433 329.367 27.8446 328.743 29.9283C327.894 32.7622 327.896 34.3497 328.752 36.2286C329.381 37.61 331.045 39.2635 332.448 39.903C334.53 40.8514 335.289 40.7759 336.572 39.493C337.437 38.6281 338.55 35.7543 339.044 33.1068C339.539 30.4594 340.348 27.8889 340.842 27.3947C341.373 26.8633 344.644 27.0149 348.845 27.7659C352.753 28.4642 356.507 29.7067 357.188 30.5269C357.977 31.4777 358.415 35.3154 358.397 41.1146C358.376 47.6313 357.898 51.083 356.711 53.286C355.801 54.9774 353.253 57.9895 351.05 59.9796C348.735 62.0716 344.834 64.2546 341.804 65.1544C338.921 66.0105 334.732 66.6792 332.495 66.6404ZM404.033 64.5541C397.012 64.8407 396.885 64.8009 395.168 61.7842C393.663 59.1404 392.859 58.7227 389.258 58.7172C386.965 58.7137 384.378 58.984 383.508 59.3179C382.638 59.6517 381.926 60.5036 381.926 61.2109C381.926 61.9182 381.214 62.7701 380.344 63.1039C379.474 63.4377 375.705 63.7109 371.967 63.7109C367.573 63.7109 364.786 63.2464 364.08 62.3965C363.29 61.4441 363.383 56.6932 364.418 45.1465C365.203 36.3819 366.348 24.0359 366.962 17.7109C367.575 11.3859 368.261 5.26051 368.486 4.09895C368.809 2.43258 369.877 1.85239 373.55 1.34895C376.111 0.998012 383.341 0.710885 389.617 0.710885C401.028 0.710885 401.028 0.710887 402.389 3.96807C403.138 5.75952 404.277 10.147 404.92 13.7181C405.564 17.2891 407.381 25.658 408.959 32.3157C410.536 38.9733 412.396 48.3584 413.092 53.1714C414.221 60.9759 414.184 62.049 412.757 63.0928C411.876 63.7366 407.951 64.3941 404.033 64.5541ZM471.426 63.9347C470.326 64.1689 466.187 64.1019 462.229 63.7857C455.844 63.2758 454.652 62.8436 451.681 59.9609C449.838 58.1734 448.026 56.7109 447.654 56.7109C447.282 56.7109 446.279 58.0609 445.426 59.7109C443.988 62.4928 443.495 62.7023 438.651 62.5926C435.777 62.5275 432.142 62.19 430.573 61.8426C428.336 61.3472 427.352 60.2395 426.014 56.7109C425.077 54.2359 420.595 41.3013 416.055 27.9674C411.515 14.6335 408.08 3.27097 408.422 2.71739C408.764 2.16381 412.381 1.71088 416.46 1.71088C423.687 1.71088 423.914 1.78674 425.426 4.71089C426.279 6.36089 427.303 7.70804 427.702 7.70456C428.1 7.70106 429.193 6.35108 430.13 4.70456C431.833 1.71088 431.833 1.71088 444.4 1.71088C456.967 1.71088 456.967 1.71089 460.197 6.32789C461.973 8.86725 463.989 11.6797 464.677 12.5779C465.825 14.0774 466.016 14.0629 467.01 12.4008C467.606 11.4052 469.491 8.99882 471.199 7.05323C474.061 3.79359 474.624 3.56502 478.365 4.14263C480.599 4.48739 483.889 5.24118 485.676 5.81773C488.17 6.62214 488.926 7.43441 488.926 9.30952C488.926 10.6535 487.973 15.2311 486.808 19.482C485.644 23.7329 483.665 30.8109 482.412 35.2109C481.159 39.6109 479.116 47.1597 477.872 51.9859C476.628 56.8122 475.119 61.3793 474.518 62.135C473.918 62.8907 472.526 63.7005 471.426 63.9347ZM495.742 64.6956C491.718 64.6872 487.774 64.2677 486.977 63.7635C485.724 62.9709 485.702 61.065 486.814 49.6954C487.522 42.4622 488.746 31.9691 489.536 26.3775C490.326 20.7859 491.248 13.4026 491.585 9.97033C491.927 6.49566 492.825 3.20957 493.613 2.55604C494.499 1.82083 500.759 1.20809 510.368 0.916032C524.733 0.479423 525.746 0.569361 526.292 2.33033C526.613 3.36463 528.223 12.0859 529.87 21.7109C531.517 31.3359 533.538 42.8109 534.36 47.2109C535.183 51.6109 535.872 56.653 535.891 58.4156C535.923 61.3305 535.587 61.6867 532.176 62.3556C530.114 62.76 526.196 63.1179 523.469 63.1509C518.512 63.2109 518.512 63.2109 516.841 58.7109C515.658 55.5238 514.535 54.1155 512.993 53.8841C511.796 53.7044 510.178 54.0871 509.398 54.7346C508.617 55.3821 507.69 57.4538 507.336 59.3385C506.983 61.2231 505.875 63.2029 504.876 63.738C503.876 64.2731 499.766 64.704 495.742 64.6956ZM511.593 21.7109C512.326 21.7109 512.919 20.9234 512.911 19.9609C512.903 18.9984 512.503 17.5907 512.023 16.8328C511.543 16.0748 510.65 15.7639 510.038 16.1418C509.427 16.5197 508.926 17.6274 508.926 18.6032C508.926 19.5791 509.226 20.6776 509.593 21.0442C509.96 21.4109 510.86 21.7109 511.593 21.7109Z" fill="#E67E3A"/>
</svg>
